<svg xmlns="http://www.w3.org/2000/svg" viewBox="0 0 250 408" fill="none"><g fill="#FCF9F9" fill-opacity=".1" clip-path="url(#a)"><path d="M186.388 407.545h-14.316V392.99h14.316v14.555ZM100.494 407.545H86.178V392.99h14.316v14.555ZM86.177 407.545H71.861V392.99h14.316v14.555Z"/><path d="M71.862 407.545H57.546V392.99h14.316v14.555ZM14.599 407.545H.283V392.99H14.6v14.555ZM257.964 392.99h-14.316v-14.555h14.316v14.555ZM200.703 392.99h-14.315v-14.555h14.315v14.555ZM186.388 392.99h-14.316v-14.555h14.316v14.555ZM86.177 392.99H71.861v-14.555h14.316v14.555Z"/><path d="M71.862 392.99H57.546v-14.555h14.316v14.555ZM57.546 392.99H43.23v-14.555h14.316v14.555ZM257.964 378.435h-14.316V363.88h14.316v14.555ZM243.647 378.435h-14.316V363.88h14.316v14.555ZM215.02 378.435h-14.316V363.88h14.316v14.555ZM200.703 378.435h-14.315V363.88h14.315v14.555ZM186.388 378.435h-14.316V363.88h14.316v14.555ZM71.862 378.435H57.546V363.88h14.316v14.555ZM57.546 378.435H43.23V363.88h14.316v14.555ZM43.23 378.435H28.914V363.88H43.23v14.555ZM257.964 363.88h-14.316v-14.556h14.316v14.556ZM243.647 363.88h-14.316v-14.556h14.316v14.556ZM215.02 363.88h-14.316v-14.556h14.316v14.556ZM200.703 363.88h-14.315v-14.556h14.315v14.556ZM157.756 363.88H143.44v-14.556h14.316v14.556Z"/><path d="M143.441 363.88h-14.316v-14.556h14.316v14.556ZM129.124 363.88h-14.315v-14.556h14.315v14.556ZM57.546 363.88H43.23v-14.556h14.316v14.556ZM43.23 363.88H28.914v-14.556H43.23v14.556Z"/><path d="M28.914 363.88H14.6v-14.556h14.315v14.556ZM243.647 349.324h-14.316v-14.555h14.316v14.555ZM215.02 349.324h-14.316v-14.555h14.316v14.555ZM172.073 349.324h-14.316v-14.555h14.316v14.555ZM157.756 349.324H143.44v-14.555h14.316v14.555Z"/><path d="M143.441 349.324h-14.316v-14.555h14.316v14.555ZM43.23 349.324H28.914v-14.555H43.23v14.555Z"/><path d="M28.914 349.324H14.6v-14.555h14.315v14.555ZM14.599 349.324H.283v-14.555H14.6v14.555ZM186.388 334.769h-14.316v-14.555h14.316v14.555Z"/><path d="M172.073 334.769h-14.316v-14.555h14.316v14.555ZM157.756 334.769H143.44v-14.555h14.316v14.555ZM28.914 334.769H14.6v-14.555h14.315v14.555ZM14.599 334.769H.283v-14.555H14.6v14.555ZM243.647 320.214h-14.316v-14.555h14.316v14.555ZM215.02 320.214h-14.316v-14.555h14.316v14.555ZM86.177 320.214H71.861v-14.555h14.316v14.555ZM14.599 320.214H.283v-14.555H14.6v14.555ZM257.964 305.659h-14.316v-14.555h14.316v14.555ZM243.647 305.659h-14.316v-14.555h14.316v14.555ZM215.02 305.659h-14.316v-14.555h14.316v14.555ZM200.703 305.659h-14.315v-14.555h14.315v14.555ZM100.494 305.659H86.178v-14.555h14.316v14.555ZM86.177 305.659H71.861v-14.555h14.316v14.555ZM257.964 291.104h-14.316v-14.555h14.316v14.555ZM200.703 291.104h-14.315v-14.555h14.315v14.555ZM186.388 291.104h-14.316v-14.555h14.316v14.555ZM114.809 291.104h-14.316v-14.555h14.316v14.555Z"/><path d="M100.494 291.104H86.178v-14.555h14.316v14.555ZM86.177 291.104H71.861v-14.555h14.316v14.555ZM186.388 276.549h-14.316v-14.556h14.316v14.556Z"/><path d="M172.073 276.549h-14.316v-14.556h14.316v14.556ZM114.809 276.549h-14.316v-14.556h14.316v14.556Z"/><path d="M100.494 276.549H86.178v-14.556h14.316v14.556ZM172.073 261.993h-14.316v-14.555h14.316v14.555ZM157.756 261.993H143.44v-14.555h14.316v14.555ZM114.809 261.993h-14.316v-14.555h14.316v14.555ZM71.862 261.993H57.546v-14.555h14.316v14.555ZM57.546 261.993H43.23v-14.555h14.316v14.555ZM43.23 261.993H28.914v-14.555H43.23v14.555ZM157.756 247.438H143.44v-14.555h14.316v14.555Z"/><path d="M143.441 247.438h-14.316v-14.555h14.316v14.555ZM86.177 247.438H71.861v-14.555h14.316v14.555Z"/><path d="M71.862 247.438H57.546v-14.555h14.316v14.555ZM57.546 247.438H43.23v-14.555h14.316v14.555ZM229.335 232.883H215.02v-14.555h14.315v14.555ZM143.441 232.883h-14.316v-14.555h14.316v14.555ZM129.124 232.883h-14.315v-14.555h14.315v14.555ZM100.494 232.883H86.178v-14.555h14.316v14.555Z"/><path d="M86.177 232.883H71.861v-14.555h14.316v14.555Z"/><path d="M71.862 232.883H57.546v-14.555h14.316v14.555ZM14.316 218.328H0v-14.556h14.316v14.556ZM28.914 218.328H14.6v-14.556h14.315v14.556ZM14.316 232.883H0v-14.555h14.316v14.555Z"/><path d="M14.316 203.773H0v-14.555h14.316v14.555ZM243.647 218.328h-14.316v-14.556h14.316v14.556Z"/><path d="M229.335 218.328H215.02v-14.556h14.315v14.556ZM215.02 218.328h-14.316v-14.556h14.316v14.556Z"/><path d="M229.335 203.773H215.02v-14.555h14.315v14.555ZM143.441 203.773h-14.316v-14.555h14.316v14.555ZM129.124 203.773h-14.315v-14.555h14.315v14.555ZM100.494 203.773H86.178v-14.555h14.316v14.555ZM86.177 203.773H71.861v-14.555h14.316v14.555Z"/><path d="M71.862 203.773H57.546v-14.555h14.316v14.555ZM157.756 189.218H143.44v-14.556h14.316v14.556Z"/><path d="M143.441 189.217h-14.316v-14.555h14.316v14.555ZM86.177 189.217H71.861v-14.555h14.316v14.555Z"/><path d="M71.862 189.217H57.546v-14.555h14.316v14.555ZM57.546 189.217H43.23v-14.555h14.316v14.555ZM172.073 174.662h-14.316v-14.555h14.316v14.555ZM157.756 174.662H143.44v-14.555h14.316v14.555ZM114.809 174.662h-14.316v-14.555h14.316v14.555ZM71.862 174.662H57.546v-14.555h14.316v14.555ZM57.546 174.662H43.23v-14.555h14.316v14.555ZM43.23 174.662H28.914v-14.555H43.23v14.555ZM186.388 160.107h-14.316v-14.555h14.316v14.555Z"/><path d="M172.073 160.107h-14.316v-14.555h14.316v14.555ZM114.809 160.107h-14.316v-14.555h14.316v14.555Z"/><path d="M100.494 160.107H86.178v-14.555h14.316v14.555ZM257.964 145.552h-14.316v-14.555h14.316v14.555ZM200.703 145.552h-14.315v-14.555h14.315v14.555ZM186.388 145.552h-14.316v-14.555h14.316v14.555ZM114.809 145.552h-14.316v-14.555h14.316v14.555Z"/><path d="M100.494 145.552H86.178v-14.555h14.316v14.555ZM86.177 145.552H71.861v-14.555h14.316v14.555ZM257.964 130.997h-14.316v-14.556h14.316v14.556ZM243.647 130.997h-14.316v-14.556h14.316v14.556ZM215.02 130.997h-14.316v-14.556h14.316v14.556ZM200.703 130.997h-14.315v-14.556h14.315v14.556Z"/><path d="M100.494 130.997H86.178v-14.556h14.316v14.556ZM86.177 130.997H71.861v-14.556h14.316v14.556ZM243.647 116.441h-14.316v-14.555h14.316v14.555ZM215.02 116.441h-14.316v-14.555h14.316v14.555ZM86.177 116.441H71.861v-14.555h14.316v14.555ZM14.599 101.886H.283V87.331H14.6v14.555ZM186.388 87.331h-14.316V72.776h14.316V87.33Z"/><path d="M172.073 87.331h-14.316V72.776h14.316V87.33ZM157.756 87.331H143.44V72.776h14.316V87.33ZM28.914 87.331H14.6V72.776h14.315V87.33ZM14.599 87.331H.283V72.776H14.6V87.33ZM243.647 72.776h-14.316V58.22h14.316v14.555ZM215.02 72.776h-14.316V58.22h14.316v14.555ZM172.073 72.776h-14.316V58.22h14.316v14.555ZM157.756 72.776H143.44V58.22h14.316v14.555Z"/><path d="M143.441 72.776h-14.316V58.22h14.316v14.555ZM43.23 72.776H28.914V58.22H43.23v14.555Z"/><path d="M28.914 72.776H14.6V58.22h14.315v14.555ZM14.599 72.776H.283V58.22H14.6v14.555ZM257.964 58.22h-14.316V43.667h14.316V58.22ZM243.647 58.22h-14.316V43.667h14.316V58.22ZM215.02 58.22h-14.316V43.667h14.316V58.22ZM200.703 58.22h-14.315V43.667h14.315V58.22ZM157.756 58.22H143.44V43.667h14.316V58.22Z"/><path d="M143.441 58.22h-14.316V43.667h14.316V58.22ZM129.124 58.22h-14.315V43.667h14.315V58.22ZM57.546 58.22H43.23V43.667h14.316V58.22ZM43.23 58.22H28.914V43.667H43.23V58.22Z"/><path d="M28.914 58.22H14.6V43.667h14.315V58.22ZM257.964 43.666h-14.316V29.11h14.316v14.556ZM243.647 43.666h-14.316V29.11h14.316v14.556ZM215.02 43.666h-14.316V29.11h14.316v14.556ZM200.703 43.666h-14.315V29.11h14.315v14.556ZM186.388 43.666h-14.316V29.11h14.316v14.556ZM71.862 43.666H57.546V29.11h14.316v14.556ZM57.546 43.666H43.23V29.11h14.316v14.556ZM43.23 43.666H28.914V29.11H43.23v14.556ZM257.964 29.11h-14.316V14.555h14.316V29.11ZM200.703 29.11h-14.315V14.555h14.315V29.11ZM186.388 29.11h-14.316V14.555h14.316V29.11ZM86.177 29.11H71.861V14.555h14.316V29.11Z"/><path d="M71.862 29.11H57.546V14.555h14.316V29.11ZM57.546 29.11H43.23V14.555h14.316V29.11ZM186.388 14.555h-14.316V0h14.316v14.555ZM100.494 14.555H86.178V0h14.316v14.555ZM86.177 14.555H71.861V0h14.316v14.555Z"/><path d="M71.862 14.555H57.546V0h14.316v14.555ZM14.599 14.555H.283V0H14.6v14.555Z"/></g><defs><clipPath id="a"><path fill="#fff" d="M0 0h459v408H0z"/></clipPath></defs></svg>