<svg xmlns="http://www.w3.org/2000/svg" aria-hidden="true" style=><defs><symbol id="icon-arrow" viewBox="0 0 32 32"><path d="M27.766 17.957a42.712 42.712 0 0 1-.337-3.49c-.022-1.04.017-1.94.119-2.7L2.255 26.37l-1.197-2.073L26.351 9.694a22.284 22.284 0 0 1-2.426-1.297A48.166 48.166 0 0 1 21.1 6.409l1.519-.877c3.209 1.349 6.143 2.024 8.804 2.023l.513.888c-1.35 2.271-2.233 5.149-2.65 8.636l-1.519.877z"/></symbol><symbol id="icon-facebook" viewBox="0 0 32 32"><path d="M19.52 4.64h.96v3.6h-1.2c-.48 0-.96 0-1.2.24s-.24.48-.24 1.04v1.28h2.64v3.04h-2.64v13.2h-4.08V13.76H11.6v-3.04h2.16V9.68c0-1.76.24-3.04.72-3.6.72-1.04 2.16-1.52 4.32-1.52.24.08.48.08.72.08z" opacity=".8"/></symbol><symbol id="icon-hero-made-hand" viewBox="0 0 32 32"><path d="M15.434.333a.653.653 0 0 1 1.133 0l1.84 3.203c.19.33.621.429.935.214l3.081-2.107a.653.653 0 0 1 1.02.496l.239 3.642a.653.653 0 0 0 .754.602l3.69-.584c.504-.08.9.423.706.894l-1.386 3.36a.653.653 0 0 0 .421.876l3.555 1.036a.653.653 0 0 1 .252 1.115l-2.731 2.433a.654.654 0 0 0 0 .975l2.731 2.433a.653.653 0 0 1-.252 1.115l-3.555 1.036a.653.653 0 0 0-.421.876l1.386 3.36a.653.653 0 0 1-.706.894l-3.69-.584a.653.653 0 0 0-.754.602l-.239 3.642a.653.653 0 0 1-1.02.496l-3.081-2.107a.653.653 0 0 0-.935.214l-1.84 3.203a.653.653 0 0 1-1.133 0l-1.84-3.203a.653.653 0 0 0-.935-.214l-3.081 2.107a.652.652 0 0 1-1.02-.496l-.239-3.642a.653.653 0 0 0-.754-.602l-3.69.584a.653.653 0 0 1-.706-.894l1.386-3.36a.653.653 0 0 0-.421-.876L.579 20.036a.653.653 0 0 1-.252-1.115l2.731-2.433a.654.654 0 0 0 0-.975L.327 13.08a.653.653 0 0 1 .252-1.115l3.555-1.036a.653.653 0 0 0 .421-.876l-1.386-3.36a.653.653 0 0 1 .706-.894l3.69.584c.38.06.729-.219.754-.602l.239-3.642a.653.653 0 0 1 1.02-.496l3.081 2.107a.653.653 0 0 0 .935-.214l1.84-3.203z"/></symbol><symbol id="icon-instagram" viewBox="0 0 32 32"><path d="M28.717 10.756a9.264 9.264 0 0 0-.596-3.145 6.547 6.547 0 0 0-3.743-3.737 9.42 9.42 0 0 0-3.108-.596c-1.368-.061-1.801-.078-5.273-.078s-3.917 0-5.274.078a9.418 9.418 0 0 0-3.106.596 6.541 6.541 0 0 0-3.743 3.737 9.288 9.288 0 0 0-.596 3.101c-.061 1.367-.08 1.8-.08 5.265s0 3.909.08 5.265a9.335 9.335 0 0 0 .596 3.104 6.548 6.548 0 0 0 3.744 3.735 9.37 9.37 0 0 0 3.106.639c1.369.061 1.803.08 5.274.08s3.916 0 5.274-.08a9.357 9.357 0 0 0 3.108-.595 6.555 6.555 0 0 0 3.743-3.737 9.35 9.35 0 0 0 .596-3.104c.061-1.365.08-1.798.08-5.265-.003-3.466-.003-3.906-.082-5.264zM15.99 22.531c-3.631 0-6.572-2.936-6.572-6.561s2.941-6.561 6.572-6.561c3.628 0 6.572 2.936 6.572 6.561s-2.944 6.561-6.572 6.561zm6.833-11.835a1.53 1.53 0 1 1 0-3.06 1.53 1.53 0 1 1 0 3.06z" opacity=".8"/><path d="M15.992 19.976a4.004 4.004 0 1 0 0-8.009 4.004 4.004 0 0 0 0 8.009z" opacity=".8"/></symbol><symbol id="icon-youtube" viewBox="0 0 32 32"><path d="M24.24 6c-1.36-.08-4.16-.16-8.4-.16h-.56c-4.08 0-6.8.08-8.16.24-1.84.16-3.12.64-3.84 1.28-.64.56-1.12 1.6-1.28 2.96-.08.88-.16 2.72-.16 5.52v.4c0 2.64.08 4.48.24 5.36.24 1.28.64 2.24 1.44 2.8.8.64 2.16 1.04 4.08 1.2 1.36.08 4.16.16 8.4.16h.56c4.08 0 6.8-.08 8.16-.24 1.84-.16 3.12-.64 3.84-1.28.64-.56 1.12-1.6 1.28-2.96.08-.88.16-2.72.16-5.52v-.4c0-2.64-.08-4.48-.24-5.36-.24-1.28-.64-2.24-1.44-2.8-.8-.64-2.16-1.04-4.08-1.2zm-3.12 9.84-8.8 5.28V10.56l8.8 5.28z" opacity=".8"/></symbol><svg xmlns="http://www.w3.org/2000/svg" aria-hidden="true" style="position:absolute;width:0;height:0;overflow:hidden"><defs><symbol id="icon-collection-element" viewBox="0 0 18 32"><path fill="#ecd979" d="M17.978 31.964h-1.124v-1.142h1.124v1.142zM16.854 31.964H15.73v-1.142h1.124v1.142zM12.356 31.964h-1.124v-1.142h1.124v1.142zM11.231 31.964h-1.124v-1.142h1.124v1.142z" style="fill:var(--color1, #ecd979)"/><path fill="#ecd979" d="M10.107 31.964H8.983v-1.142h1.124v1.142zM3.36 31.964H2.236v-1.142H3.36v1.142zM17.978 30.823h-1.124v-1.142h1.124v1.142zM13.48 30.823h-1.124v-1.142h1.124v1.142zM12.356 30.823h-1.124v-1.142h1.124v1.142z" style="fill:var(--color1, #ecd979)"/><path fill="#ecd979" d="M11.231 30.823h-1.124v-1.142h1.124v1.142zM3.36 30.823H2.236v-1.142H3.36v1.142zM2.236 30.823H1.112v-1.142h1.124v1.142zM14.605 29.681h-1.124v-1.142h1.124v1.142zM13.48 29.681h-1.124v-1.142h1.124v1.142zM12.356 29.681h-1.124v-1.142h1.124v1.142zM3.36 29.681H2.236v-1.142H3.36v1.142zM2.236 29.681H1.112v-1.142h1.124v1.142zM1.111 29.681H-.013v-1.142h1.124v1.142z" style="fill:var(--color1, #ecd979)"/><path fill="#ecd979" d="M15.729 28.54h-1.124v-1.142h1.124v1.142z" style="fill:var(--color1, #ecd979)"/><path fill="#ecd979" d="M14.605 28.54h-1.124v-1.142h1.124v1.142zM13.48 28.54h-1.124v-1.142h1.124v1.142zM7.858 28.54H6.734v-1.142h1.124v1.142zM6.734 28.54H5.61v-1.142h1.124v1.142zM5.609 28.54H4.485v-1.142h1.124v1.142zM2.236 28.54H1.112v-1.142h1.124v1.142zM1.111 28.54H-.013v-1.142h1.124v1.142zM16.854 27.398H15.73v-1.142h1.124v1.142zM15.729 27.398h-1.124v-1.142h1.124v1.142z" style="fill:var(--color1, #ecd979)"/><path fill="#ecd979" d="M14.605 27.398h-1.124v-1.142h1.124v1.142zM6.734 27.398H5.61v-1.142h1.124v1.142zM5.609 27.398H4.485v-1.142h1.124v1.142zM4.485 27.398H3.361v-1.142h1.124v1.142zM1.111 27.398H-.013v-1.142h1.124v1.142zM16.854 26.256H15.73v-1.142h1.124v1.142zM15.729 26.256h-1.124v-1.142h1.124v1.142zM5.609 26.256H4.485v-1.142h1.124v1.142zM4.485 26.256H3.361v-1.142h1.124v1.142zM3.36 26.256H2.236v-1.142H3.36v1.142z" style="fill:var(--color1, #ecd979)"/><path fill="#ecd979" d="M16.854 25.115H15.73v-1.142h1.124v1.142zM11.231 25.115h-1.124v-1.142h1.124v1.142zM1.111 25.115H-.013v-1.142h1.124v1.142zM11.231 23.973h-1.124v-1.142h1.124v1.142z" style="fill:var(--color1, #ecd979)"/><path fill="#ecd979" d="M10.107 23.973H8.983v-1.142h1.124v1.142zM2.236 23.973H1.112v-1.142h1.124v1.142zM1.111 23.973H-.013v-1.142h1.124v1.142z" style="fill:var(--color1, #ecd979)"/><path fill="#ecd979" d="M11.231 22.832h-1.124V21.69h1.124v1.142z" style="fill:var(--color1, #ecd979)"/><path fill="#ecd979" d="M10.107 22.832H8.983V21.69h1.124v1.142zM8.983 22.832H7.859V21.69h1.124v1.142zM3.36 22.832H2.236V21.69H3.36v1.142zM2.236 22.832H1.112V21.69h1.124v1.142zM10.107 21.69H8.983v-1.142h1.124v1.142zM8.983 21.69H7.859v-1.142h1.124v1.142zM4.485 21.69H3.361v-1.142h1.124v1.142zM3.36 21.69H2.236v-1.142H3.36v1.142zM14.605 20.548h-1.124v-1.142h1.124v1.142zM13.48 20.548h-1.124v-1.142h1.124v1.142zM12.356 20.548h-1.124v-1.142h1.124v1.142zM8.983 20.548H7.859v-1.142h1.124v1.142zM5.609 20.548H4.485v-1.142h1.124v1.142zM4.485 20.548H3.361v-1.142h1.124v1.142zM17.978 19.407h-1.124v-1.142h1.124v1.142z" style="fill:var(--color1, #ecd979)"/><path fill="#ecd979" d="M13.48 19.407h-1.124v-1.142h1.124v1.142zM12.356 19.407h-1.124v-1.142h1.124v1.142zM11.231 19.407h-1.124v-1.142h1.124v1.142zM6.734 19.407H5.61v-1.142h1.124v1.142zM5.609 19.407H4.485v-1.142h1.124v1.142zM17.978 18.265h-1.124v-1.142h1.124v1.142zM16.854 18.265H15.73v-1.142h1.124v1.142zM12.356 18.265h-1.124v-1.142h1.124v1.142zM11.231 18.265h-1.124v-1.142h1.124v1.142z" style="fill:var(--color1, #ecd979)"/><path fill="#ecd979" d="M10.107 18.265H8.983v-1.142h1.124v1.142zM7.858 18.265H6.734v-1.142h1.124v1.142zM6.734 18.265H5.61v-1.142h1.124v1.142zM17.978 17.124h-1.124v-1.142h1.124v1.142zM16.854 17.124H15.73v-1.142h1.124v1.142zM15.729 17.124h-1.124v-1.142h1.124v1.142zM1.111 17.124H-.013v-1.142h1.124v1.142zM17.978 15.982h-1.124V14.84h1.124v1.142zM16.854 15.982H15.73V14.84h1.124v1.142zM12.356 15.982h-1.124V14.84h1.124v1.142zM11.231 15.982h-1.124V14.84h1.124v1.142z" style="fill:var(--color1, #ecd979)"/><path fill="#ecd979" d="M10.107 15.982H8.983V14.84h1.124v1.142zM7.858 15.982H6.734V14.84h1.124v1.142zM6.734 15.982H5.61V14.84h1.124v1.142zM17.978 14.841h-1.124v-1.142h1.124v1.142zM13.48 14.841h-1.124v-1.142h1.124v1.142zM12.356 14.841h-1.124v-1.142h1.124v1.142z" style="fill:var(--color1, #ecd979)"/><path fill="#ecd979" d="M11.231 14.841h-1.124v-1.142h1.124v1.142zM6.734 14.841H5.61v-1.142h1.124v1.142zM5.609 14.841H4.485v-1.142h1.124v1.142zM14.605 13.699h-1.124v-1.142h1.124v1.142zM13.48 13.699h-1.124v-1.142h1.124v1.142zM12.356 13.699h-1.124v-1.142h1.124v1.142zM8.983 13.699H7.859v-1.142h1.124v1.142zM5.609 13.699H4.485v-1.142h1.124v1.142zM4.485 13.699H3.361v-1.142h1.124v1.142zM10.107 12.557H8.983v-1.142h1.124v1.142zM8.983 12.557H7.859v-1.142h1.124v1.142zM4.485 12.557H3.361v-1.142h1.124v1.142zM3.36 12.557H2.236v-1.142H3.36v1.142z" style="fill:var(--color1, #ecd979)"/><path fill="#ecd979" d="M11.231 11.416h-1.124v-1.142h1.124v1.142z" style="fill:var(--color1, #ecd979)"/><path fill="#ecd979" d="M10.107 11.416H8.983v-1.142h1.124v1.142zM8.983 11.416H7.859v-1.142h1.124v1.142zM3.36 11.416H2.236v-1.142H3.36v1.142zM2.236 11.416H1.112v-1.142h1.124v1.142zM11.231 10.274h-1.124V9.132h1.124v1.142z" style="fill:var(--color1, #ecd979)"/><path fill="#ecd979" d="M10.107 10.274H8.983V9.132h1.124v1.142zM2.236 10.274H1.112V9.132h1.124v1.142zM1.111 10.274H-.013V9.132h1.124v1.142z" style="fill:var(--color1, #ecd979)"/><path fill="#ecd979" d="M11.231 9.133h-1.124V7.991h1.124v1.142zM1.111 9.133H-.013V7.991h1.124v1.142zM16.854 7.991H15.73V6.849h1.124v1.142zM16.854 6.849H15.73V5.707h1.124v1.142zM15.729 6.849h-1.124V5.707h1.124v1.142zM5.609 6.849H4.485V5.707h1.124v1.142zM4.485 6.849H3.361V5.707h1.124v1.142zM3.36 6.849H2.236V5.707H3.36v1.142z" style="fill:var(--color1, #ecd979)"/><path fill="#ecd979" d="M16.854 5.708H15.73V4.566h1.124v1.142zM15.729 5.708h-1.124V4.566h1.124v1.142z" style="fill:var(--color1, #ecd979)"/><path fill="#ecd979" d="M14.605 5.708h-1.124V4.566h1.124v1.142zM6.734 5.708H5.61V4.566h1.124v1.142zM5.609 5.708H4.485V4.566h1.124v1.142zM4.485 5.708H3.361V4.566h1.124v1.142zM1.111 5.708H-.013V4.566h1.124v1.142zM15.729 4.566h-1.124V3.424h1.124v1.142z" style="fill:var(--color1, #ecd979)"/><path fill="#ecd979" d="M14.605 4.566h-1.124V3.424h1.124v1.142zM13.48 4.566h-1.124V3.424h1.124v1.142zM7.858 4.566H6.734V3.424h1.124v1.142zM6.734 4.566H5.61V3.424h1.124v1.142zM5.609 4.566H4.485V3.424h1.124v1.142zM2.236 4.566H1.112V3.424h1.124v1.142zM1.111 4.566H-.013V3.424h1.124v1.142z" style="fill:var(--color1, #ecd979)"/><path fill="#ecd979" d="M14.605 3.425h-1.124V2.283h1.124v1.142zM13.48 3.425h-1.124V2.283h1.124v1.142zM12.356 3.425h-1.124V2.283h1.124v1.142zM3.36 3.425H2.236V2.283H3.36v1.142zM2.236 3.425H1.112V2.283h1.124v1.142zM1.111 3.425H-.013V2.283h1.124v1.142zM17.978 2.283h-1.124V1.141h1.124v1.142zM13.48 2.283h-1.124V1.141h1.124v1.142zM12.356 2.283h-1.124V1.141h1.124v1.142zM11.231 2.283h-1.124V1.141h1.124v1.142zM3.36 2.283H2.236V1.141H3.36v1.142zM2.236 2.283H1.112V1.141h1.124v1.142z" style="fill:var(--color1, #ecd979)"/><path fill="#ecd979" d="M17.978 1.142h-1.124V0h1.124v1.142zM16.854 1.142H15.73V0h1.124v1.142zM12.356 1.142h-1.124V0h1.124v1.142zM11.231 1.142h-1.124V0h1.124v1.142z" style="fill:var(--color1, #ecd979)"/><path fill="#ecd979" d="M10.107 1.142H8.983V0h1.124v1.142zM3.36 1.142H2.236V0H3.36v1.142z" style="fill:var(--color1, #ecd979)"/></symbol></defs></svg></defs></svg>